<svg width="176" height="48" viewBox="0 0 176 48" fill="none" xmlns="http://www.w3.org/2000/svg">
<path d="M14.2569 0C21.2387 0 26.5869 1.25315 30.3016 3.75944C34.0163 6.22098 35.8737 10.0699 35.8737 15.3063C35.8737 18.5734 35.1128 21.2364 33.5911 23.2951C32.1142 25.3091 29.966 26.8979 27.1464 28.0615C28.0862 29.2252 29.0709 30.5678 30.1002 32.0895C31.1296 33.5664 32.1366 35.1329 33.1212 36.7888C34.1506 38.4 35.1352 40.1007 36.0751 41.8909C37.0149 43.6364 37.8876 45.3594 38.6932 47.0601H26.945C26.0946 45.5385 25.2219 43.9944 24.3268 42.428C23.4765 40.8615 22.5814 39.3399 21.6415 37.8629C20.7464 36.386 19.8513 34.9986 18.9562 33.7007C18.0611 32.358 17.166 31.1497 16.2709 30.0755H11.1016V47.0601H0.628906V1.20839C2.91142 0.76084 5.26107 0.447553 7.67786 0.268531C10.1394 0.08951 12.3324 0 14.2569 0ZM14.8611 8.92867C14.1002 8.92867 13.4065 8.95105 12.78 8.9958C12.1981 9.04056 11.6387 9.08531 11.1016 9.13007V21.7511H14.0555C17.9939 21.7511 20.8135 21.2587 22.5142 20.2741C24.2149 19.2895 25.0653 17.6112 25.0653 15.2392C25.0653 12.9566 24.1925 11.3455 22.4471 10.4056C20.7464 9.42098 18.2177 8.92867 14.8611 8.92867Z" fill="white"/>
<path d="M41.3518 29.6727C41.3518 26.5399 41.8217 23.8098 42.7616 21.4825C43.7462 19.1105 45.0217 17.1413 46.5882 15.5748C48.1546 14.0084 49.9448 12.8224 51.9588 12.0168C54.0175 11.2112 56.121 10.8084 58.2693 10.8084C63.2819 10.8084 67.2427 12.3524 70.1518 15.4406C73.0609 18.4839 74.5154 22.9818 74.5154 28.9343C74.5154 29.5161 74.4931 30.165 74.4483 30.8811C74.4036 31.5524 74.3588 32.1566 74.314 32.6937H51.6231C51.8469 34.7524 52.8092 36.386 54.5098 37.5944C56.2105 38.8028 58.4931 39.407 61.3574 39.407C63.1924 39.407 64.9826 39.2504 66.728 38.9371C68.5182 38.579 69.9728 38.1538 71.0917 37.6615L72.4343 45.7846C71.8973 46.0532 71.1812 46.3217 70.2861 46.5902C69.391 46.8587 68.384 47.0825 67.2651 47.2615C66.191 47.4853 65.0273 47.6643 63.7742 47.7986C62.521 47.9329 61.2679 48 60.0147 48C56.8371 48 54.0623 47.5301 51.6903 46.5902C49.363 45.6504 47.4161 44.3748 45.8497 42.7636C44.328 41.1077 43.1868 39.1608 42.4259 36.9231C41.7098 34.6853 41.3518 32.2685 41.3518 29.6727ZM64.8483 25.8462C64.8036 24.9958 64.6469 24.1678 64.3784 23.3622C64.1546 22.5566 63.7742 21.8406 63.2371 21.214C62.7448 20.5874 62.0959 20.0727 61.2903 19.6699C60.5294 19.2671 59.5672 19.0657 58.4036 19.0657C57.2847 19.0657 56.3224 19.2671 55.5168 19.6699C54.7112 20.028 54.0399 20.5203 53.5028 21.1469C52.9658 21.7734 52.5406 22.5119 52.2273 23.3622C51.9588 24.1678 51.7574 24.9958 51.6231 25.8462H64.8483Z" fill="white"/>
<path d="M95.7284 40.0783C96.713 40.0783 97.6529 40.0559 98.548 40.0112C99.4431 39.9664 100.159 39.8993 100.696 39.8098V32.2238C100.293 32.1343 99.6892 32.0448 98.8836 31.9552C98.078 31.8657 97.3396 31.821 96.6682 31.821C95.7284 31.821 94.8333 31.8881 93.9829 32.0224C93.1773 32.1119 92.4613 32.3133 91.8347 32.6266C91.2081 32.9399 90.7158 33.365 90.3578 33.9021C89.9997 34.4392 89.8207 35.1105 89.8207 35.9161C89.8207 37.4825 90.3354 38.579 91.3647 39.2056C92.4389 39.7874 93.8934 40.0783 95.7284 40.0783ZM94.9228 10.8084C97.8766 10.8084 100.338 11.1441 102.307 11.8154C104.277 12.4867 105.843 13.449 107.007 14.7021C108.215 15.9552 109.065 17.4769 109.558 19.2671C110.05 21.0573 110.296 23.049 110.296 25.242V46.0532C108.864 46.3664 106.872 46.7245 104.321 47.1273C101.77 47.5748 98.6822 47.7986 95.057 47.7986C92.7745 47.7986 90.6934 47.5972 88.8137 47.1944C86.9787 46.7916 85.3899 46.1427 84.0473 45.2476C82.7046 44.3077 81.6752 43.0993 80.9591 41.6224C80.2431 40.1455 79.885 38.3329 79.885 36.1846C79.885 34.1259 80.2878 32.3804 81.0934 30.9483C81.9438 29.5161 83.0627 28.3748 84.4501 27.5245C85.8375 26.6741 87.4263 26.0699 89.2165 25.7119C91.0067 25.3091 92.864 25.1077 94.7885 25.1077C96.0864 25.1077 97.2277 25.1748 98.2123 25.3091C99.2417 25.3986 100.07 25.5329 100.696 25.7119V24.772C100.696 23.0713 100.182 21.7063 99.1521 20.6769C98.1228 19.6476 96.3326 19.1329 93.7815 19.1329C92.0808 19.1329 90.4025 19.2671 88.7466 19.5357C87.0906 19.7594 85.6585 20.0951 84.4501 20.5427L83.1745 12.4867C83.7563 12.3077 84.4724 12.1287 85.3228 11.9497C86.2179 11.7259 87.1801 11.5469 88.2095 11.4126C89.2389 11.2336 90.313 11.0993 91.4319 11.0098C92.5955 10.8755 93.7591 10.8084 94.9228 10.8084Z" fill="white"/>
<path d="M117.663 29.4042C117.663 26.8531 118.066 24.4587 118.871 22.221C119.722 19.9385 120.93 17.9692 122.497 16.3133C124.063 14.6126 125.965 13.2699 128.203 12.2853C130.441 11.3007 132.992 10.8084 135.856 10.8084C137.736 10.8084 139.459 10.9874 141.025 11.3455C142.592 11.6587 144.113 12.1287 145.59 12.7552L143.509 20.7441C142.569 20.386 141.54 20.0727 140.421 19.8042C139.302 19.5357 138.049 19.4014 136.662 19.4014C133.708 19.4014 131.492 20.3189 130.015 22.1538C128.583 23.9888 127.867 26.4056 127.867 29.4042C127.867 32.5818 128.539 35.0434 129.881 36.7888C131.269 38.5343 133.663 39.407 137.064 39.407C138.273 39.407 139.571 39.2951 140.958 39.0713C142.346 38.8476 143.621 38.4895 144.785 37.9972L146.194 46.1874C145.031 46.6797 143.576 47.1049 141.831 47.4629C140.085 47.821 138.161 48 136.057 48C132.835 48 130.06 47.5301 127.733 46.5902C125.406 45.6056 123.481 44.2853 121.96 42.6294C120.483 40.9734 119.386 39.0266 118.67 36.7888C117.999 34.5063 117.663 32.0448 117.663 29.4042Z" fill="#FFC93E"/>
<path d="M152.572 2.95385L162.575 1.34266V11.7483H174.592V20.0727H162.575V32.4923C162.575 34.5958 162.933 36.2741 163.649 37.5273C164.41 38.7804 165.909 39.407 168.147 39.407C169.221 39.407 170.318 39.3175 171.436 39.1385C172.6 38.9147 173.652 38.6238 174.592 38.2657L176.001 46.0532C174.793 46.5455 173.45 46.9706 171.973 47.3287C170.497 47.6867 168.684 47.8657 166.536 47.8657C163.806 47.8657 161.545 47.5077 159.755 46.7916C157.965 46.0308 156.533 45.0014 155.459 43.7035C154.385 42.3608 153.624 40.7497 153.176 38.8699C152.773 36.9902 152.572 34.9091 152.572 32.6266V2.95385Z" fill="white"/>
</svg>
